<svg width="304" height="27" viewBox="0 0 304 27" fill="none" xmlns="http://www.w3.org/2000/svg">
<path d="M9.20136 24.812C8.96136 24.812 8.75736 24.728 8.58936 24.56C8.42136 24.392 8.33736 24.188 8.33736 23.948V16.928H1.42536C1.18536 16.928 0.981359 16.844 0.813359 16.676C0.645359 16.508 0.561359 16.292 0.561359 16.028V14.156C0.561359 13.892 0.645359 13.688 0.813359 13.544C0.981359 13.376 1.18536 13.292 1.42536 13.292H8.33736V6.452C8.33736 6.188 8.42136 5.984 8.58936 5.84C8.75736 5.672 8.96136 5.588 9.20136 5.588H11.2894C11.5534 5.588 11.7574 5.672 11.9014 5.84C12.0694 5.984 12.1534 6.188 12.1534 6.452V13.292H19.0654C19.3294 13.292 19.5334 13.376 19.6774 13.544C19.8454 13.688 19.9294 13.892 19.9294 14.156V16.028C19.9294 16.292 19.8454 16.508 19.6774 16.676C19.5094 16.844 19.3054 16.928 19.0654 16.928H12.1534V23.948C12.1534 24.188 12.0694 24.392 11.9014 24.56C11.7574 24.728 11.5534 24.812 11.2894 24.812H9.20136ZM27.9306 26C27.7146 26 27.5346 25.928 27.3906 25.784C27.2466 25.616 27.1746 25.424 27.1746 25.208C27.1746 25.04 27.2226 24.884 27.3186 24.74L32.6106 17.432C32.0826 17.552 31.5906 17.6 31.1346 17.576C29.5266 17.528 28.0626 17.132 26.7426 16.388C25.4226 15.644 24.3786 14.636 23.6106 13.364C22.8666 12.092 22.4946 10.7 22.4946 9.188C22.4946 7.676 22.8666 6.26 23.6106 4.94C24.3546 3.596 25.4586 2.516 26.9226 1.7C28.3866 0.859999 30.1506 0.439999 32.2146 0.439999C34.2786 0.439999 36.0546 0.835999 37.5426 1.628C39.0306 2.396 40.1466 3.44 40.8906 4.76C41.6586 6.056 42.0426 7.484 42.0426 9.044C42.0426 10.004 41.8866 10.916 41.5746 11.78C41.2626 12.644 40.9026 13.4 40.4946 14.048C40.1106 14.672 39.5586 15.488 38.8386 16.496L32.5026 25.28C32.3586 25.496 32.1906 25.676 31.9986 25.82C31.8306 25.94 31.5906 26 31.2786 26H27.9306ZM32.2506 13.76C33.5706 13.76 34.6746 13.352 35.5626 12.536C36.4746 11.696 36.9306 10.58 36.9306 9.188C36.9306 7.796 36.4746 6.68 35.5626 5.84C34.6746 5 33.5706 4.58 32.2506 4.58C30.9306 4.58 29.8146 5 28.9026 5.84C28.0146 6.68 27.5706 7.796 27.5706 9.188C27.5706 10.58 28.0146 11.696 28.9026 12.536C29.7906 13.352 30.9066 13.76 32.2506 13.76ZM50.1494 26C49.9334 26 49.7534 25.928 49.6094 25.784C49.4654 25.616 49.3934 25.424 49.3934 25.208C49.3934 25.04 49.4414 24.884 49.5374 24.74L54.8294 17.432C54.3014 17.552 53.8094 17.6 53.3534 17.576C51.7454 17.528 50.2814 17.132 48.9614 16.388C47.6414 15.644 46.5974 14.636 45.8294 13.364C45.0854 12.092 44.7134 10.7 44.7134 9.188C44.7134 7.676 45.0854 6.26 45.8294 4.94C46.5734 3.596 47.6774 2.516 49.1414 1.7C50.6054 0.859999 52.3694 0.439999 54.4334 0.439999C56.4974 0.439999 58.2734 0.835999 59.7614 1.628C61.2494 2.396 62.3654 3.44 63.1094 4.76C63.8774 6.056 64.2614 7.484 64.2614 9.044C64.2614 10.004 64.1054 10.916 63.7934 11.78C63.4814 12.644 63.1214 13.4 62.7134 14.048C62.3294 14.672 61.7774 15.488 61.0574 16.496L54.7214 25.28C54.5774 25.496 54.4094 25.676 54.2174 25.82C54.0494 25.94 53.8094 26 53.4974 26H50.1494ZM54.4694 13.76C55.7894 13.76 56.8934 13.352 57.7814 12.536C58.6934 11.696 59.1494 10.58 59.1494 9.188C59.1494 7.796 58.6934 6.68 57.7814 5.84C56.8934 5 55.7894 4.58 54.4694 4.58C53.1494 4.58 52.0334 5 51.1214 5.84C50.2334 6.68 49.7894 7.796 49.7894 9.188C49.7894 10.58 50.2334 11.696 51.1214 12.536C52.0094 13.352 53.1254 13.76 54.4694 13.76ZM77.5521 26.36C75.4641 26.36 73.6641 26.036 72.1521 25.388C70.6641 24.716 69.5241 23.792 68.7321 22.616C67.9401 21.44 67.5441 20.096 67.5441 18.584C67.5441 17.24 67.8801 16.052 68.5521 15.02C69.2241 13.964 70.1241 13.16 71.2521 12.608C70.3641 12.056 69.6681 11.348 69.1641 10.484C68.6841 9.596 68.4441 8.588 68.4441 7.46C68.4441 5.348 69.2361 3.656 70.8201 2.384C72.4281 1.088 74.6721 0.439999 77.5521 0.439999C80.4081 0.439999 82.6281 1.076 84.2121 2.348C85.7961 3.62 86.5881 5.312 86.5881 7.424C86.5881 8.552 86.3481 9.56 85.8681 10.448C85.4121 11.312 84.7401 12.032 83.8521 12.608C85.0041 13.16 85.9041 13.964 86.5521 15.02C87.2241 16.052 87.5601 17.252 87.5601 18.62C87.5601 20.132 87.1641 21.476 86.3721 22.652C85.5801 23.828 84.4281 24.74 82.9161 25.388C81.4041 26.036 79.6161 26.36 77.5521 26.36ZM77.5521 11.06C78.8001 11.036 79.8321 10.712 80.6481 10.088C81.4881 9.464 81.9081 8.648 81.9081 7.64C81.9081 6.584 81.5001 5.744 80.6841 5.12C79.8681 4.496 78.8241 4.184 77.5521 4.184C76.2801 4.184 75.2361 4.496 74.4201 5.12C73.6041 5.744 73.1961 6.584 73.1961 7.64C73.1961 8.672 73.6041 9.5 74.4201 10.124C75.2361 10.748 76.2801 11.06 77.5521 11.06ZM77.5521 22.616C78.9681 22.616 80.1561 22.256 81.1161 21.536C82.0761 20.792 82.5561 19.82 82.5561 18.62C82.5561 17.42 82.0761 16.46 81.1161 15.74C80.1561 14.996 78.9681 14.624 77.5521 14.624C76.1121 14.624 74.9121 14.984 73.9521 15.704C73.0161 16.424 72.5481 17.396 72.5481 18.62C72.5481 19.844 73.0161 20.816 73.9521 21.536C74.9121 22.256 76.1121 22.616 77.5521 22.616ZM95.9931 26C95.7771 26 95.5971 25.928 95.4531 25.784C95.3091 25.616 95.2371 25.424 95.2371 25.208C95.2371 25.04 95.2851 24.884 95.3811 24.74L100.673 17.432C100.145 17.552 99.6531 17.6 99.1971 17.576C97.5891 17.528 96.1251 17.132 94.8051 16.388C93.4851 15.644 92.4411 14.636 91.6731 13.364C90.9291 12.092 90.5571 10.7 90.5571 9.188C90.5571 7.676 90.9291 6.26 91.6731 4.94C92.4171 3.596 93.5211 2.516 94.9851 1.7C96.4491 0.859999 98.2131 0.439999 100.277 0.439999C102.341 0.439999 104.117 0.835999 105.605 1.628C107.093 2.396 108.209 3.44 108.953 4.76C109.721 6.056 110.105 7.484 110.105 9.044C110.105 10.004 109.949 10.916 109.637 11.78C109.325 12.644 108.965 13.4 108.557 14.048C108.173 14.672 107.621 15.488 106.901 16.496L100.565 25.28C100.421 25.496 100.253 25.676 100.061 25.82C99.8931 25.94 99.6531 26 99.3411 26H95.9931ZM100.313 13.76C101.633 13.76 102.737 13.352 103.625 12.536C104.537 11.696 104.993 10.58 104.993 9.188C104.993 7.796 104.537 6.68 103.625 5.84C102.737 5 101.633 4.58 100.313 4.58C98.9931 4.58 97.8771 5 96.9651 5.84C96.0771 6.68 95.6331 7.796 95.6331 9.188C95.6331 10.58 96.0771 11.696 96.9651 12.536C97.8531 13.352 98.9691 13.76 100.313 13.76ZM116.808 26C116.592 26 116.412 25.928 116.268 25.784C116.124 25.616 116.052 25.424 116.052 25.208C116.052 25.136 116.076 25.028 116.124 24.884L124.8 5.084H113.496C113.256 5.084 113.052 5 112.884 4.832C112.716 4.664 112.632 4.46 112.632 4.22V1.7C112.632 1.436 112.704 1.22 112.848 1.052C113.016 0.883999 113.232 0.799998 113.496 0.799998H129.3C129.564 0.799998 129.768 0.883999 129.912 1.052C130.08 1.22 130.164 1.436 130.164 1.7V3.932C130.164 4.412 130.056 4.928 129.84 5.48L121.236 25.136C120.972 25.712 120.588 26 120.084 26H116.808ZM144.581 26C144.365 26 144.185 25.928 144.041 25.784C143.897 25.616 143.825 25.424 143.825 25.208C143.825 25.136 143.849 25.028 143.897 24.884L152.573 5.084H141.269C141.029 5.084 140.825 5 140.657 4.832C140.489 4.664 140.405 4.46 140.405 4.22V1.7C140.405 1.436 140.477 1.22 140.621 1.052C140.789 0.883999 141.005 0.799998 141.269 0.799998H157.073C157.337 0.799998 157.541 0.883999 157.685 1.052C157.853 1.22 157.937 1.436 157.937 1.7V3.932C157.937 4.412 157.829 4.928 157.613 5.48L149.009 25.136C148.745 25.712 148.361 26 147.857 26H144.581ZM164.128 26C163.912 26 163.732 25.928 163.588 25.784C163.444 25.616 163.372 25.424 163.372 25.208C163.372 25.136 163.396 25.028 163.444 24.884L172.12 5.084H160.816C160.576 5.084 160.372 5 160.204 4.832C160.036 4.664 159.952 4.46 159.952 4.22V1.7C159.952 1.436 160.024 1.22 160.168 1.052C160.336 0.883999 160.552 0.799998 160.816 0.799998H176.62C176.884 0.799998 177.088 0.883999 177.232 1.052C177.4 1.22 177.484 1.436 177.484 1.7V3.932C177.484 4.412 177.376 4.928 177.16 5.48L168.556 25.136C168.292 25.712 167.908 26 167.404 26H164.128ZM183.675 26C183.459 26 183.279 25.928 183.135 25.784C182.991 25.616 182.919 25.424 182.919 25.208C182.919 25.136 182.943 25.028 182.991 24.884L191.667 5.084H180.363C180.123 5.084 179.919 5 179.751 4.832C179.583 4.664 179.499 4.46 179.499 4.22V1.7C179.499 1.436 179.571 1.22 179.715 1.052C179.883 0.883999 180.099 0.799998 180.363 0.799998H196.167C196.431 0.799998 196.635 0.883999 196.779 1.052C196.947 1.22 197.031 1.436 197.031 1.7V3.932C197.031 4.412 196.923 4.928 196.707 5.48L188.103 25.136C187.839 25.712 187.455 26 186.951 26H183.675ZM200.009 17.252C199.769 17.252 199.565 17.168 199.397 17C199.229 16.832 199.145 16.628 199.145 16.388V14.012C199.145 13.748 199.229 13.544 199.397 13.4C199.565 13.232 199.769 13.148 200.009 13.148H211.061C211.325 13.148 211.529 13.232 211.673 13.4C211.841 13.544 211.925 13.748 211.925 14.012V16.388C211.925 16.628 211.841 16.832 211.673 17C211.529 17.168 211.325 17.252 211.061 17.252H200.009ZM217.531 26C217.315 26 217.135 25.928 216.991 25.784C216.847 25.616 216.775 25.424 216.775 25.208C216.775 25.136 216.799 25.028 216.847 24.884L225.523 5.084H214.219C213.979 5.084 213.775 5 213.607 4.832C213.439 4.664 213.355 4.46 213.355 4.22V1.7C213.355 1.436 213.427 1.22 213.571 1.052C213.739 0.883999 213.955 0.799998 214.219 0.799998H230.023C230.287 0.799998 230.491 0.883999 230.635 1.052C230.803 1.22 230.887 1.436 230.887 1.7V3.932C230.887 4.412 230.779 4.928 230.563 5.48L221.959 25.136C221.695 25.712 221.311 26 220.807 26H217.531ZM237.077 26C236.861 26 236.681 25.928 236.537 25.784C236.393 25.616 236.321 25.424 236.321 25.208C236.321 25.136 236.345 25.028 236.393 24.884L245.069 5.084H233.765C233.525 5.084 233.321 5 233.153 4.832C232.985 4.664 232.901 4.46 232.901 4.22V1.7C232.901 1.436 232.973 1.22 233.117 1.052C233.285 0.883999 233.501 0.799998 233.765 0.799998H249.569C249.833 0.799998 250.037 0.883999 250.181 1.052C250.349 1.22 250.433 1.436 250.433 1.7V3.932C250.433 4.412 250.325 4.928 250.109 5.48L241.505 25.136C241.241 25.712 240.857 26 240.353 26H237.077ZM253.411 17.252C253.171 17.252 252.967 17.168 252.799 17C252.631 16.832 252.547 16.628 252.547 16.388V14.012C252.547 13.748 252.631 13.544 252.799 13.4C252.967 13.232 253.171 13.148 253.411 13.148H264.463C264.727 13.148 264.931 13.232 265.075 13.4C265.243 13.544 265.327 13.748 265.327 14.012V16.388C265.327 16.628 265.243 16.832 265.075 17C264.931 17.168 264.727 17.252 264.463 17.252H253.411ZM270.933 26C270.717 26 270.537 25.928 270.393 25.784C270.249 25.616 270.177 25.424 270.177 25.208C270.177 25.136 270.201 25.028 270.249 24.884L278.925 5.084H267.621C267.381 5.084 267.177 5 267.009 4.832C266.841 4.664 266.757 4.46 266.757 4.22V1.7C266.757 1.436 266.829 1.22 266.973 1.052C267.141 0.883999 267.357 0.799998 267.621 0.799998H283.425C283.689 0.799998 283.893 0.883999 284.037 1.052C284.205 1.22 284.289 1.436 284.289 1.7V3.932C284.289 4.412 284.181 4.928 283.965 5.48L275.361 25.136C275.097 25.712 274.713 26 274.209 26H270.933ZM290.48 26C290.264 26 290.084 25.928 289.94 25.784C289.796 25.616 289.724 25.424 289.724 25.208C289.724 25.136 289.748 25.028 289.796 24.884L298.472 5.084H287.168C286.928 5.084 286.724 5 286.556 4.832C286.388 4.664 286.304 4.46 286.304 4.22V1.7C286.304 1.436 286.376 1.22 286.52 1.052C286.688 0.883999 286.904 0.799998 287.168 0.799998H302.972C303.236 0.799998 303.44 0.883999 303.584 1.052C303.752 1.22 303.836 1.436 303.836 1.7V3.932C303.836 4.412 303.728 4.928 303.512 5.48L294.908 25.136C294.644 25.712 294.26 26 293.756 26H290.48Z" fill="#4D8526"/>
</svg>
