<svg width="94" height="94" viewBox="0 0 94 94" fill="none" xmlns="http://www.w3.org/2000/svg">
<path d="M86.5453 69.7923C85.896 69.3906 85.0442 69.5913 84.6427 70.2405C80.7464 76.5373 75.2891 81.8015 68.8605 85.464C62.2333 89.2398 54.674 91.2356 46.9998 91.2356C30.7382 91.2356 15.8221 82.3429 8.07253 68.0277C7.70911 67.3566 6.87059 67.1069 6.19905 67.4703C5.52768 67.8337 5.27816 68.6724 5.64157 69.3438C13.8747 84.5524 29.7224 94.0001 46.9998 94.0001C55.153 94.0001 63.1856 91.879 70.2289 87.8661C77.0577 83.9754 82.8547 78.3835 86.9933 71.6951C87.395 71.0457 87.1943 70.1939 86.5453 69.7923Z" fill="#747474"/>
<path d="M5.68549 62.8338C3.74714 57.7796 2.76433 52.4522 2.76433 46.9999C2.76433 36.9323 6.23965 27.0786 12.5499 19.2539C13.0292 18.6597 12.936 17.7895 12.3416 17.3104C11.7475 16.831 10.8773 16.9245 10.3981 17.5186C7.10028 21.6078 4.53074 26.1761 2.76083 31.0963C0.929 36.1891 0 41.5399 0 46.9999C0 52.7919 1.04455 58.4523 3.10453 63.8236C3.31536 64.3735 3.83947 64.7111 4.39529 64.7111C4.55986 64.7111 4.72719 64.6815 4.88992 64.619C5.60275 64.3459 5.95879 63.5466 5.68549 62.8338Z" fill="#747474"/>
<path d="M80.234 13.766C71.3568 4.889 59.554 0 46.9999 0C34.8328 0 23.2925 4.63265 14.505 13.0443C13.9536 13.5721 13.9345 14.4471 14.4623 14.9985C14.9901 15.5499 15.8651 15.5691 16.4165 15.0413C24.687 7.12442 35.5486 2.76433 46.9999 2.76433C58.8158 2.76433 69.9243 7.36565 78.2793 15.7206C86.6344 24.0755 91.2357 35.1842 91.2357 46.9999C91.2357 53.3426 89.9221 59.4652 87.3313 65.1977C87.0169 65.8934 87.326 66.712 88.0217 67.0264C88.2063 67.1099 88.3998 67.1493 88.59 67.1493C89.1164 67.1493 89.6195 66.8469 89.8504 66.336C92.6038 60.2433 94 53.7377 94 46.9997C94 34.4458 89.1112 22.643 80.234 13.766Z" fill="#747474"/>
<path d="M31.5289 55.6314C31.2607 54.9166 30.4637 54.5546 29.7494 54.8228C29.0347 55.0909 28.6726 55.8876 28.9407 56.6023C30.2982 60.2208 32.6916 63.3157 35.8619 65.5521C39.1055 67.8404 42.9253 69.0499 46.9078 69.0499C50.8903 69.0499 54.71 67.8404 57.9537 65.5521C61.124 63.3156 63.5172 60.2208 64.8748 56.6023C65.143 55.8876 64.781 55.0907 64.0662 54.8228C63.3517 54.5545 62.5548 54.9166 62.2867 55.6314C59.8959 62.0042 53.7156 66.2857 46.9078 66.2857C40.1 66.2857 33.9197 62.004 31.5289 55.6314Z" fill="#747474"/>
<path d="M30.3542 32.1365C25.751 32.1365 22.0061 35.8814 22.0061 40.4844C22.0061 41.2477 22.6249 41.8666 23.3883 41.8666C24.1516 41.8666 24.7704 41.2477 24.7704 40.4844C24.7704 37.4055 27.2753 34.9008 30.3542 34.9008C33.4331 34.9008 35.938 37.4057 35.938 40.4844C35.938 41.2477 36.5568 41.8666 37.3201 41.8666C38.0835 41.8666 38.7023 41.2477 38.7023 40.4844C38.7023 35.8812 34.9574 32.1365 30.3542 32.1365Z" fill="#747474"/>
<path d="M58.0618 40.4844C58.0618 37.4055 60.5667 34.9008 63.6456 34.9008C66.7245 34.9008 69.2293 37.4057 69.2293 40.4844C69.2293 41.2477 69.8482 41.8666 70.6115 41.8666C71.3748 41.8666 71.9937 41.2477 71.9937 40.4844C71.9937 35.8812 68.2487 32.1365 63.6456 32.1365C59.0424 32.1365 55.2975 35.8814 55.2975 40.4844C55.2975 41.2477 55.9163 41.8666 56.6797 41.8666C57.443 41.8666 58.0618 41.2477 58.0618 40.4844Z" fill="#747474"/>
<path d="M11.6471 45.8782C10.9258 45.6287 10.1387 46.0112 9.88895 46.7325L7.85108 52.6243C7.60156 53.3458 7.98414 54.1329 8.70545 54.3824C8.85509 54.4342 9.00749 54.4587 9.15732 54.4587C9.73009 54.4587 10.2656 54.0997 10.4634 53.528L12.5012 47.6363C12.751 46.9148 12.3684 46.1277 11.6471 45.8782Z" fill="#747474"/>
<path d="M15.5562 54.4587C16.129 54.4587 16.6645 54.0997 16.8622 53.528L18.9001 47.6363C19.1496 46.9148 18.7671 46.1277 18.0457 45.8782C17.3241 45.6287 16.5372 46.0112 16.2876 46.7325L14.2498 52.6243C14.0002 53.3458 14.3828 54.1329 15.1041 54.3824C15.2538 54.434 15.4062 54.4587 15.5562 54.4587Z" fill="#747474"/>
<path d="M76.4062 54.4587C76.9789 54.4587 77.5145 54.0997 77.7122 53.528L79.7501 47.6363C79.9996 46.9148 79.617 46.1277 78.8957 45.8782C78.1742 45.6287 77.3871 46.0112 77.1376 46.7325L75.0997 52.6243C74.8502 53.3458 75.2328 54.1329 75.9541 54.3824C76.1037 54.434 76.2562 54.4587 76.4062 54.4587Z" fill="#747474"/>
<path d="M82.8048 54.4587C83.3776 54.4587 83.9132 54.0997 84.1109 53.528L86.1488 47.6363C86.3983 46.9148 86.0157 46.1277 85.2944 45.8782C84.5733 45.6287 83.7858 46.0112 83.5363 46.7325L81.4984 52.6243C81.2489 53.3458 81.6315 54.1329 82.3528 54.3824C82.5026 54.434 82.6548 54.4587 82.8048 54.4587Z" fill="#747474"/>
</svg>
