<svg width="93" height="93" viewBox="0 0 93 93" fill="none" xmlns="http://www.w3.org/2000/svg">
<path d="M21.1131 10.0528H18.3183V7.23462H21.1131V10.0528ZM15.5001 10.0528H12.6819V7.23462H15.5001V10.0528ZM9.86374 10.0528H7.04553V7.23462H9.86374V10.0528Z" fill="#747474"/>
<path d="M92.953 72.0932C92.953 68.9853 90.4245 66.4568 87.3166 66.4568C86.1559 66.4568 85.076 66.8094 84.1785 67.4133C83.4044 65.2235 81.3135 63.6502 78.862 63.6502C77.7041 63.6502 76.6268 64.0012 75.7304 64.6022C74.962 62.4025 72.866 60.8202 70.4074 60.8202C69.3816 60.8202 68.4187 61.0958 67.5892 61.5766V55.1323H76.5377C80.4227 55.1323 83.5833 51.9718 83.5833 48.0868C83.5833 44.2018 80.4227 41.0413 76.5377 41.0413H57.7497C53.8647 41.0413 50.7042 44.2018 50.7042 48.0868C50.7042 51.4806 53.1164 54.3214 56.3164 54.9854V67.7834V69.2725L53.5072 69.3278C50.9028 69.3345 48.7083 71.1171 48.072 73.5243H5.16671C3.87165 73.5243 2.8182 72.4708 2.8182 71.1758V42.2627H0V71.1758C0 74.0248 2.31788 76.3425 5.16671 76.3425H47.8824L47.861 87.0821L50.9206 92.7286L53.3984 91.386L50.6807 86.3704L50.7034 74.9642C50.7034 73.4102 51.9677 72.146 53.5217 72.146L56.3164 72.0915V84.7751H59.1346V72.0366V67.7838V52.3776C59.1346 50.8236 60.3988 49.5594 61.9528 49.5594C63.5067 49.5594 64.771 50.8236 64.771 52.3776V66.457V76.3325H67.5892V66.457C67.5892 64.903 68.8534 63.6388 70.4074 63.6388C71.9613 63.6388 73.2256 64.903 73.2256 66.457V69.287V76.3325H76.0438V69.287C76.0438 67.733 77.3081 66.4688 78.862 66.4688C80.416 66.4688 81.6802 67.733 81.6802 69.287V72.0936V76.3327H84.4984V72.0936C84.4984 70.5396 85.7627 69.2753 87.3166 69.2753C88.8706 69.2753 90.1348 70.5396 90.1348 72.0969L90.1818 92.0609L93 92.0543L92.953 72.0932ZM61.9528 46.741C58.9491 46.741 56.4873 49.1028 56.3254 52.0666C54.6933 51.4806 53.5224 49.9182 53.5224 48.087C53.5224 45.7559 55.4189 43.8597 57.7497 43.8597H76.5377C78.8686 43.8597 80.765 45.7559 80.765 48.087C80.765 50.418 78.8686 52.3143 76.5377 52.3143H67.5877C67.5535 49.2355 65.0395 46.741 61.9528 46.741Z" fill="#747474"/>
<path d="M2.8182 17.1924H90.1591V65.0902H92.9773V5.43819C92.9773 2.58918 90.6596 0.271484 87.8106 0.271484H5.16671C2.31769 0.271484 0 2.58918 0 5.43819V39.3506H2.8182V17.1924ZM2.8182 5.43819C2.8182 4.14313 3.87165 3.08969 5.16671 3.08969H87.8106C89.1056 3.08969 90.1591 4.14313 90.1591 5.43819V14.3743H2.8182V5.43819Z" fill="#747474"/>
<path d="M52.1133 22.8171H69.0225V25.6353H52.1133V22.8171Z" fill="#747474"/>
<path d="M52.1133 28.2773H80.2953V31.0955H52.1133V28.2773Z" fill="#747474"/>
<path d="M66.2043 34.0334H69.0851V36.8517H66.2043V34.0334Z" fill="#747474"/>
<path d="M52.1133 34.0334H63.3861V36.8517H52.1133V34.0334Z" fill="#747474"/>
<path d="M8.22878 48.9153L10.7015 45.0912L12.8279 68.5212H40.8264L42.8519 45.0976L45.2957 48.8552L47.6581 47.3187L43.2465 40.5351L43.337 39.4877H36.6367V29.0953L40.6323 29.7611L41.0958 26.9813L7.27736 21.3448L6.81386 24.1247L22.5456 26.7468V29.7687H7.04551V32.5869H22.5456V39.4877H10.1929L10.2883 40.5402L5.86224 47.3853L8.22878 48.9153ZM39.0757 42.3059L35.9768 46.6803L18.0446 46.7389L14.61 42.3061H39.0757V42.3059ZM15.4021 65.703L13.5751 45.5715L16.6665 49.5617L37.4376 49.4938L39.9499 45.9476L38.2415 65.7032H15.4021V65.703ZM33.8185 39.4877H31.0002V28.1559L33.8185 28.6256V39.4877ZM25.3638 27.2165L28.182 27.6862V39.4877H25.3638V27.2165Z" fill="#747474"/>
</svg>
