<svg width="85" height="89" viewBox="0 0 85 89" fill="none" xmlns="http://www.w3.org/2000/svg">
<path d="M29.4667 24.7862L27.9615 25.3316C25.6385 26.174 23.9054 28.2061 23.4383 30.6364L22.9276 33.3126C22.6728 34.6382 23.0197 35.9958 23.88 37.0369C24.7406 38.079 26.0096 38.6766 27.3609 38.6766H40.4079C41.7489 38.6766 43.0114 38.0868 43.8718 37.0584C44.7316 36.0309 45.0893 34.6857 44.8533 33.3675L44.377 30.7054C43.9356 28.2368 42.1968 26.1718 39.8387 25.316L38.2429 24.7377V22.3858C38.2429 22.3197 38.2365 22.2554 38.2269 22.192C39.3911 21.0068 40.0579 19.3907 40.0579 17.7373V14.2331C40.0579 10.8125 37.2749 8.02966 33.8541 8.02966C30.4333 8.02966 27.6498 10.8125 27.6498 14.2331V17.8464C27.6498 19.5461 28.3507 21.0979 29.4776 22.2248C29.471 22.2777 29.4667 22.331 29.4667 22.3856V24.7862ZM41.8099 31.1643L42.2862 33.8268C42.3859 34.3832 42.2349 34.9511 41.8718 35.385C41.5081 35.8196 40.9745 36.069 40.4076 36.069H27.3606C26.7896 36.069 26.2535 35.8166 25.8898 35.3763C25.5269 34.9369 25.3803 34.3641 25.4881 33.8032L25.9988 31.1269C26.2931 29.5951 27.3858 28.3138 28.8496 27.7831L29.8355 27.4259C29.8602 27.4513 29.8851 27.4769 29.9119 27.5003C31.0353 28.4826 32.4445 28.9739 33.8546 28.9737C35.263 28.9737 36.6719 28.4835 37.7955 27.5031C37.836 27.4678 37.8732 27.4298 37.9086 27.3901L38.9487 27.7671C40.4356 28.3064 41.5317 29.608 41.8099 31.1643ZM30.2573 14.2331C30.2573 12.2504 31.8706 10.6371 33.8536 10.6371C35.5272 10.6371 36.9335 11.7878 37.3328 13.3384C37.1652 13.4202 36.9933 13.4976 36.8172 13.568C35.2141 14.2098 33.9193 14.1246 33.5492 13.8652C32.9596 13.4519 32.1468 13.5944 31.7332 14.184C31.3199 14.7737 31.4626 15.5865 32.052 16C32.6888 16.4466 33.553 16.6698 34.5393 16.6698C35.4354 16.6698 36.4323 16.4836 37.4501 16.1153V17.7369C37.4501 18.7335 37.0379 19.7093 36.3192 20.4142C35.9865 20.7407 35.6053 20.9936 35.1959 21.1681C35.1672 21.1791 35.139 21.1909 35.1114 21.2037C34.6909 21.3701 34.2417 21.4537 33.7827 21.4417C31.8386 21.4043 30.2573 19.7914 30.2573 17.8463V14.2331ZM33.7326 24.049C33.7724 24.0497 33.8119 24.05 33.8517 24.05C34.4634 24.05 35.0627 23.9581 35.6353 23.7816V25.8674C34.5487 26.5373 33.1597 26.537 32.0745 25.8663V23.7854C32.6018 23.9452 33.1576 24.0378 33.7326 24.049Z" fill="#747474"/>
<path d="M13.3427 60.9969H53.9437C54.6639 60.9969 55.2474 60.4134 55.2474 59.6932C55.2474 58.9731 54.6639 58.3895 53.9437 58.3895H13.3427C12.6225 58.3895 12.0389 58.9731 12.0389 59.6932C12.0389 60.4134 12.6225 60.9969 13.3427 60.9969Z" fill="#747474"/>
<path d="M13.3427 68.0267H53.9437C54.6639 68.0267 55.2474 67.4432 55.2474 66.723C55.2474 66.0029 54.6639 65.4193 53.9437 65.4193H13.3427C12.6225 65.4193 12.0389 66.0029 12.0389 66.723C12.0389 67.4432 12.6225 68.0267 13.3427 68.0267Z" fill="#747474"/>
<path d="M13.3427 75.0563H53.9437C54.6639 75.0563 55.2474 74.4727 55.2474 73.7526C55.2474 73.0324 54.6639 72.4489 53.9437 72.4489H13.3427C12.6225 72.4489 12.0389 73.0324 12.0389 73.7526C12.0389 74.4727 12.6225 75.0563 13.3427 75.0563Z" fill="#747474"/>
<path d="M13.3427 82.0859H53.9437C54.6639 82.0859 55.2474 81.5024 55.2474 80.7822C55.2474 80.0621 54.6639 79.4785 53.9437 79.4785H13.3427C12.6225 79.4785 12.0389 80.0621 12.0389 80.7822C12.0389 81.5024 12.6225 82.0859 13.3427 82.0859Z" fill="#747474"/>
<path d="M12.0389 45.634C12.0389 46.3542 12.6225 46.9377 13.3427 46.9377H53.9437C54.6639 46.9377 55.2474 46.3542 55.2474 45.634C55.2474 44.9139 54.6639 44.3303 53.9437 44.3303H13.3427C12.6225 44.3303 12.0389 44.914 12.0389 45.634Z" fill="#747474"/>
<path d="M13.3427 53.9674H53.9437C54.6639 53.9674 55.2474 53.3839 55.2474 52.6637C55.2474 51.9435 54.6639 51.36 53.9437 51.36H13.3427C12.6225 51.36 12.0389 51.9435 12.0389 52.6637C12.0389 53.3839 12.6225 53.9674 13.3427 53.9674Z" fill="#747474"/>
<path d="M8.52855 61.0018C9.25133 61.0018 9.8373 60.416 9.8373 59.6932C9.8373 58.9706 9.25133 58.3846 8.52855 58.3846C7.80577 58.3846 7.21997 58.9704 7.21997 59.6932C7.21997 60.416 7.80595 61.0018 8.52855 61.0018Z" fill="#747474"/>
<path d="M8.52855 46.9427C9.25133 46.9427 9.8373 46.3569 9.8373 45.6341C9.8373 44.9114 9.25133 44.3256 8.52855 44.3256C7.80577 44.3256 7.21997 44.9114 7.21997 45.6341C7.21997 46.3569 7.80595 46.9427 8.52855 46.9427Z" fill="#747474"/>
<path d="M8.52855 53.9723C9.25133 53.9723 9.8373 53.3865 9.8373 52.6637C9.8373 51.9409 9.25133 51.3551 8.52855 51.3551C7.80577 51.3551 7.21997 51.9409 7.21997 52.6637C7.21997 53.3865 7.80595 53.9723 8.52855 53.9723Z" fill="#747474"/>
<path d="M8.52855 68.0315C9.25133 68.0315 9.8373 67.4457 9.8373 66.7229C9.8373 66.0001 9.25133 65.4143 8.52855 65.4143C7.80577 65.4143 7.21997 66.0001 7.21997 66.7229C7.21997 67.4457 7.80595 68.0315 8.52855 68.0315Z" fill="#747474"/>
<path d="M8.52855 75.0612C9.25133 75.0612 9.8373 74.4755 9.8373 73.7527C9.8373 73.0299 9.25133 72.4441 8.52855 72.4441C7.80577 72.4441 7.21997 73.0299 7.21997 73.7527C7.21997 74.4753 7.80595 75.0612 8.52855 75.0612Z" fill="#747474"/>
<path d="M8.52855 82.0908C9.25133 82.0908 9.8373 81.505 9.8373 80.7822C9.8373 80.0596 9.25133 79.4736 8.52855 79.4736C7.80577 79.4736 7.21997 80.0594 7.21997 80.7822C7.21997 81.5048 7.80595 82.0908 8.52855 82.0908Z" fill="#747474"/>
<path d="M82.4161 20.5328C81.8901 19.867 81.393 19.2379 81.1525 18.6584C80.8932 18.0328 80.791 17.2062 80.6829 16.3308C80.4932 14.7973 80.2784 13.0592 79.0654 11.8464C77.8524 10.6336 76.1141 10.4187 74.5806 10.2291C73.7051 10.121 72.8782 10.0188 72.2525 9.75941C71.6728 9.519 71.0439 9.0222 70.378 8.49602C69.4617 7.77203 68.4541 6.97711 67.2626 6.61642V6.222C67.2628 2.79133 64.4713 0 61.0401 0H6.72856C3.29737 0 0.505859 2.79133 0.505859 6.22218V11.2543C0.505859 11.9745 1.0894 12.558 1.80957 12.558C2.52974 12.558 3.11328 11.9745 3.11328 11.2543V6.22218C3.11328 4.22889 4.7351 2.60742 6.72856 2.60742H61.0401C63.0336 2.60742 64.6554 4.22889 64.6554 6.22218V6.61677C63.4643 6.97763 62.457 7.7722 61.5407 8.4962C60.8748 9.0222 60.2459 9.51918 59.6663 9.75958C59.0407 10.0188 58.2138 10.121 57.3383 10.2293C55.8048 10.4187 54.0667 10.6336 52.8535 11.8464C51.6404 13.0594 51.4255 14.7975 51.2359 16.331C51.1277 17.2062 51.0255 18.0329 50.7662 18.6585C50.5258 19.2381 50.0288 19.8672 49.5026 20.5329C48.5285 21.7655 47.4247 23.1626 47.4247 24.9511C47.4247 26.7396 48.5287 28.1367 49.5026 29.3693C50.0286 30.0351 50.5258 30.6642 50.7662 31.2437C51.0255 31.8693 51.1277 32.6959 51.2359 33.5714C51.4255 35.1048 51.6404 36.8429 52.8533 38.0557C54.0663 39.2686 55.8046 39.4833 57.3381 39.673C57.7953 39.7295 58.2383 39.7849 58.6474 39.8614V59.5678C58.6474 60.3401 59.0785 61.0298 59.7726 61.3678C60.4665 61.7062 61.2753 61.6203 61.8839 61.1439L64.6552 58.974V82.778C64.6552 84.7713 63.0334 86.3928 61.0399 86.3928H6.72856C4.7351 86.3928 3.11328 84.7713 3.11328 82.778V16.9953C3.11328 16.2752 2.52974 15.6916 1.80957 15.6916C1.0894 15.6916 0.505859 16.2752 0.505859 16.9953V82.7778C0.505859 86.2087 3.29737 89 6.72856 89H61.0401C64.4713 89 67.2628 86.2087 67.2628 82.7778V58.9738L70.0341 61.1435C70.3959 61.4269 70.8287 61.5722 71.2664 61.5722C71.5647 61.5722 71.8651 61.5046 72.1467 61.3674C72.841 61.0295 73.2724 60.3397 73.2724 59.5676V45.0187C73.2724 44.2985 72.6889 43.715 71.9687 43.715C71.2485 43.715 70.665 44.2985 70.665 45.0187V58.3261L67.1994 55.6128C66.8491 55.3356 66.4086 55.1828 65.9589 55.1828C65.5092 55.1828 65.0688 55.3356 64.7241 55.6083L61.2546 58.3247V41.1809C61.3492 41.255 61.4443 41.3299 61.5406 41.4059C62.7733 42.38 64.1706 43.4836 65.9593 43.4836C67.7478 43.4836 69.145 42.3798 70.3778 41.406C71.0438 40.88 71.6728 40.3829 72.2524 40.1425C72.878 39.8833 73.7049 39.7811 74.5805 39.6728C76.114 39.4833 77.8521 39.2685 79.0654 38.0557C80.2782 36.8427 80.493 35.1046 80.6827 33.5713C80.791 32.6959 80.8932 31.8691 81.1525 31.2435C81.393 30.664 81.8899 30.0349 82.4161 29.3691C83.3902 28.1365 84.494 26.7395 84.494 24.9509C84.494 23.1624 83.3901 21.7654 82.4161 20.5328ZM80.3703 27.7525C79.7571 28.5287 79.1229 29.3311 78.7442 30.2447C78.3491 31.1973 78.2199 32.2415 78.0951 33.2512C77.9437 34.476 77.8008 35.6329 77.2219 36.2117C76.6429 36.7906 75.4859 36.9334 74.261 37.0848C73.251 37.2096 72.207 37.3386 71.2541 37.7337C70.3404 38.1125 69.538 38.7465 68.7619 39.3597C67.7747 40.1393 66.8425 40.876 65.9596 40.876C65.0768 40.876 64.1445 40.1395 63.1573 39.3597C62.3812 38.7466 61.5788 38.1125 60.6652 37.7337C60.6022 37.7077 60.3839 37.6246 60.3368 37.61C59.4751 37.3103 58.5533 37.1954 57.6581 37.0848C56.4331 36.9334 55.2761 36.7904 54.6971 36.2115C54.1185 35.6329 53.9754 34.476 53.824 33.2514C53.6992 32.2415 53.5702 31.1976 53.1751 30.2447C52.7961 29.3311 52.1622 28.5287 51.5489 27.7525C50.7693 26.7655 50.0326 25.8335 50.0326 24.9509C50.0326 24.0684 50.7691 23.1363 51.5489 22.1494C52.1622 21.3732 52.7963 20.5708 53.1751 19.6572C53.5702 18.7046 53.6994 17.6604 53.824 16.6506C53.9754 15.4259 54.1185 14.269 54.6973 13.6902C55.2763 13.1113 56.4333 12.9684 57.6583 12.817C58.6682 12.6922 59.7122 12.5633 60.6652 12.1681C61.5788 11.7894 62.3812 11.1554 63.1573 10.5422C64.1424 9.76393 65.0731 9.02898 65.9544 9.0262C65.956 9.0262 65.9577 9.02637 65.9593 9.02637C65.961 9.02637 65.9627 9.0262 65.9645 9.0262C66.846 9.02881 67.7766 9.76393 68.7619 10.5422C69.538 11.1552 70.3404 11.7894 71.2541 12.1681C72.2068 12.5633 73.2512 12.6924 74.2611 12.817C75.4861 12.9684 76.6431 13.1115 77.2219 13.6904C77.8008 14.2692 77.9439 15.4259 78.0953 16.6506C78.2201 17.6604 78.3491 18.7044 78.7442 19.6572C79.1231 20.5708 79.7571 21.3732 80.3703 22.1494C81.1499 23.1363 81.8866 24.0684 81.8866 24.9509C81.8866 25.8335 81.1501 26.7657 80.3703 27.7525Z" fill="#747474"/>
<path d="M74.3295 20.8079L69.893 19.5527L67.3278 15.7215C67.0214 15.264 66.51 14.9911 65.9595 14.9911C65.4089 14.9911 64.8974 15.2642 64.5911 15.7215L62.0259 19.5527L57.5891 20.8081C57.0593 20.9581 56.6414 21.3605 56.4714 21.8841C56.3014 22.4076 56.4033 22.9787 56.7436 23.4108L59.5949 27.0339L59.418 31.6398C59.3966 32.1902 59.6497 32.712 60.0952 33.0358C60.3811 33.2436 60.7199 33.351 61.0625 33.351C61.2541 33.351 61.4467 33.3174 61.6317 33.2493L65.9591 31.6574L70.2862 33.2491C70.803 33.4396 71.3772 33.3597 71.8227 33.0362C72.2682 32.7127 72.5216 32.191 72.5004 31.6405L72.3235 27.0337L75.175 23.4106C75.5153 22.978 75.617 22.4073 75.4468 21.8837C75.2773 21.3602 74.8595 20.9579 74.3295 20.8079ZM70.0555 25.6999C69.8146 26.0066 69.69 26.39 69.7048 26.781L69.84 30.3069L66.5281 29.0885C66.1611 28.9535 65.757 28.9537 65.3907 29.0884L62.0784 30.3069L62.2138 26.7798C62.2284 26.3902 62.1036 26.0068 61.8622 25.6991L59.6799 22.9262L63.0764 21.9654C63.452 21.8589 63.7786 21.6214 63.9957 21.2971L65.9591 18.3646L67.9223 21.2967C68.1396 21.6212 68.4662 21.8587 68.8426 21.9656L72.2383 22.9262L70.0555 25.6999Z" fill="#747474"/>
</svg>
