<svg width="277" height="70" viewBox="0 0 277 70" fill="none" xmlns="http://www.w3.org/2000/svg">
<path d="M65.552 27.344C65.36 26.504 65.12 25.976 64.616 25.52C64.136 25.064 63.464 24.8 62.624 24.8C61.448 24.8 60.392 25.376 59.936 26.24C59.552 26.96 59.48 27.44 59.48 29.048V45.92C59.48 47.432 59.552 48.032 59.888 48.704C60.344 49.616 61.328 50.192 62.6 50.192C63.872 50.192 64.856 49.616 65.312 48.704C65.648 48.032 65.72 47.432 65.72 45.92V34.88C65.72 31.496 67.928 30.368 69.896 30.368C71.864 30.368 74.024 31.496 74.024 34.88V45.92C74.024 47.432 74.096 48.032 74.432 48.704C74.888 49.616 75.872 50.192 77.144 50.192C78.416 50.192 79.4 49.616 79.856 48.704C80.192 48.032 80.264 47.432 80.264 45.92V34.736C80.264 31.496 82.52 30.368 84.44 30.368C86.408 30.368 88.568 31.496 88.568 34.88V45.92C88.568 47.432 88.64 48.032 88.976 48.704C89.432 49.616 90.416 50.192 91.688 50.192C92.96 50.192 93.944 49.616 94.4 48.704C94.736 48.032 94.808 47.432 94.808 45.92V34.016C94.808 31.28 94.088 28.928 92.072 26.912C90.68 25.52 88.424 24.704 85.928 24.704C82.808 24.704 80.552 25.664 78.44 27.872C76.856 25.712 74.6 24.704 71.816 24.704C69.512 24.704 67.16 25.592 65.552 27.344ZM116.647 35.168H107.167C107.191 34.088 107.311 33.368 107.719 32.456C108.367 30.968 109.807 29.888 111.895 29.888C114.007 29.888 115.423 30.968 116.095 32.456C116.503 33.368 116.599 34.088 116.647 35.168ZM119.191 39.44C120.127 39.44 121.135 39.44 121.927 38.648C122.671 37.904 122.791 36.824 122.767 35.864C122.551 29.552 118.639 24.704 111.895 24.704C105.415 24.704 101.023 29.336 101.023 37.496C101.023 47.6 106.663 50.288 112.591 50.288C115.351 50.288 117.703 49.712 119.407 48.56C120.847 47.6 121.855 46.52 121.855 45.344C121.855 43.904 120.535 42.728 119.335 42.728C118.591 42.728 117.991 42.968 117.007 43.664C115.783 44.576 114.247 45.008 112.687 45.008C109.063 45.008 107.167 42.68 107.167 39.44H119.191ZM137.834 59.456C144.554 59.456 148.826 55.088 148.826 49.088V29.048C148.826 27.44 148.754 26.96 148.37 26.24C147.914 25.376 146.858 24.8 145.682 24.8C144.842 24.8 144.17 25.064 143.69 25.52C143.186 25.976 142.946 26.504 142.754 27.344C141.074 25.424 139.298 24.704 136.682 24.704C134.234 24.704 132.074 25.52 130.682 26.912C128.33 29.264 128.138 32.432 128.138 36.8C128.138 41.168 128.33 44.384 130.682 46.736C132.074 48.128 134.186 48.944 136.634 48.944C139.082 48.944 140.954 48.272 142.586 46.448V48.992C142.586 51.536 141.314 54.176 137.57 54.176C136.394 54.176 135.266 53.864 133.874 53.024C132.962 52.472 132.338 52.232 131.546 52.232C130.394 52.232 129.05 53.312 129.05 54.896C129.05 56.216 130.178 57.296 131.546 58.064C133.25 59 135.074 59.456 137.834 59.456ZM142.586 36.8C142.586 40.088 142.154 43.28 138.458 43.28C134.762 43.28 134.378 40.088 134.378 36.8C134.378 33.512 134.762 30.368 138.458 30.368C142.154 30.368 142.586 33.512 142.586 36.8ZM164.723 29.984C167.675 29.984 169.115 31.184 169.115 33.92V35.168H163.307C157.403 35.168 154.667 38.432 154.667 42.416C154.667 44.624 155.411 46.712 156.731 48.032C158.171 49.496 160.283 50.288 163.115 50.288C165.971 50.288 167.483 49.592 169.307 47.816C169.499 48.56 169.739 49.04 170.219 49.472C170.699 49.928 171.371 50.192 172.211 50.192C173.387 50.192 174.443 49.616 174.899 48.752C175.283 48.032 175.355 47.552 175.355 45.944V33.536C175.355 27.68 171.779 24.704 164.819 24.704C162.299 24.704 160.331 25.184 158.507 26.144C157.355 26.744 156.179 27.728 156.179 29.12C156.179 29.84 156.371 30.392 156.875 30.992C157.331 31.568 158.027 31.832 158.651 31.832C159.203 31.832 159.899 31.664 160.715 31.184C162.083 30.368 163.235 29.984 164.723 29.984ZM169.115 40.784C169.115 42.392 168.899 43.256 168.155 43.952C167.099 44.96 165.995 45.152 164.459 45.152C161.867 45.152 160.667 44.048 160.667 42.32C160.667 40.448 161.867 39.44 164.363 39.44H169.115V40.784ZM184.102 25.688H183.454C182.278 25.688 181.846 25.76 181.342 26.024C180.598 26.408 180.19 27.152 180.19 28.088C180.19 29.024 180.598 29.768 181.342 30.152C181.846 30.416 182.278 30.488 183.454 30.488H184.102V45.92C184.102 47.432 184.174 48.032 184.51 48.704C184.966 49.616 185.95 50.192 187.222 50.192C188.494 50.192 189.478 49.616 189.934 48.704C190.27 48.032 190.342 47.432 190.342 45.92V30.488H192.214C193.39 30.488 193.822 30.416 194.326 30.152C195.07 29.768 195.478 29.024 195.478 28.088C195.478 27.152 195.07 26.408 194.326 26.024C193.822 25.76 193.39 25.688 192.214 25.688H190.342V22.952C190.342 21.776 190.774 20.84 192.358 20.744C193.15 20.696 193.702 20.624 194.23 20.36C194.998 19.976 195.478 19.256 195.478 18.128C195.478 17.024 194.974 16.28 194.23 15.896C193.678 15.608 192.862 15.464 191.662 15.464H191.326C186.142 15.464 184.102 18.968 184.102 22.616V25.688ZM204.882 37.496C204.882 34.88 205.074 32.696 206.346 31.448C207.066 30.728 208.002 30.368 209.25 30.368C210.498 30.368 211.434 30.728 212.154 31.448C213.426 32.696 213.618 34.88 213.618 37.496C213.618 40.112 213.426 42.296 212.154 43.544C211.434 44.264 210.498 44.624 209.25 44.624C208.002 44.624 207.066 44.264 206.346 43.544C205.074 42.296 204.882 40.112 204.882 37.496ZM219.858 37.496C219.858 32.936 219.258 30.176 217.002 27.776C215.442 26.144 212.97 24.704 209.25 24.704C205.53 24.704 203.058 26.144 201.498 27.776C199.242 30.176 198.642 32.936 198.642 37.496C198.642 42.056 199.242 44.816 201.498 47.216C203.058 48.848 205.53 50.288 209.25 50.288C212.97 50.288 215.442 48.848 217.002 47.216C219.258 44.816 219.858 42.056 219.858 37.496ZM231.711 37.496C231.711 34.88 231.903 32.696 233.175 31.448C233.895 30.728 234.831 30.368 236.079 30.368C237.327 30.368 238.263 30.728 238.983 31.448C240.255 32.696 240.447 34.88 240.447 37.496C240.447 40.112 240.255 42.296 238.983 43.544C238.263 44.264 237.327 44.624 236.079 44.624C234.831 44.624 233.895 44.264 233.175 43.544C231.903 42.296 231.711 40.112 231.711 37.496ZM246.687 37.496C246.687 32.936 246.087 30.176 243.831 27.776C242.271 26.144 239.799 24.704 236.079 24.704C232.359 24.704 229.887 26.144 228.327 27.776C226.071 30.176 225.471 32.936 225.471 37.496C225.471 42.056 226.071 44.816 228.327 47.216C229.887 48.848 232.359 50.288 236.079 50.288C239.799 50.288 242.271 48.848 243.831 47.216C246.087 44.816 246.687 42.056 246.687 37.496ZM273.228 19.904C273.228 18.392 273.156 17.792 272.82 17.12C272.364 16.208 271.38 15.632 270.108 15.632C268.836 15.632 267.852 16.208 267.396 17.12C267.06 17.792 266.988 18.392 266.988 19.904V27.2C265.404 25.376 263.484 24.704 260.94 24.704C258.444 24.704 256.284 25.52 254.892 26.96C252.492 29.408 252.3 33.296 252.3 37.472C252.3 41.696 252.492 45.584 254.892 48.032C256.284 49.472 258.516 50.288 260.964 50.288C263.628 50.288 265.476 49.592 267.18 47.696C267.372 48.512 267.612 49.04 268.092 49.472C268.572 49.928 269.244 50.192 270.084 50.192C271.26 50.192 272.316 49.616 272.772 48.752C273.156 48.032 273.228 47.552 273.228 45.944V19.904ZM258.54 37.472C258.54 33.464 259.02 30.368 262.764 30.368C266.508 30.368 266.988 33.464 266.988 37.472C266.988 41.48 266.508 44.624 262.716 44.624C259.02 44.624 258.54 41.48 258.54 37.472Z" fill="#253A7C"/>
<path d="M154.67 62.044V59.944H157.676C158.03 59.944 158.168 59.932 158.33 59.848C158.54 59.74 158.684 59.494 158.684 59.2C158.684 58.906 158.54 58.66 158.33 58.552C158.168 58.468 158.03 58.456 157.676 58.456H154.01C153.764 58.456 153.458 58.456 153.224 58.69C152.99 58.924 152.99 59.23 152.99 59.476V65.92C152.99 66.31 153.002 66.448 153.104 66.652C153.23 66.886 153.5 67.048 153.83 67.048C154.16 67.048 154.43 66.886 154.556 66.652C154.658 66.448 154.67 66.31 154.67 65.92V63.532H157.094C157.448 63.532 157.586 63.52 157.748 63.436C157.958 63.328 158.102 63.082 158.102 62.788C158.102 62.494 157.958 62.248 157.748 62.14C157.586 62.056 157.448 62.044 157.094 62.044H154.67ZM161.736 63.598H162.906L164.49 66.364C164.706 66.742 164.88 67.048 165.33 67.048C165.48 67.048 165.63 67 165.774 66.916C166.05 66.76 166.2 66.484 166.188 66.22C166.176 66.022 166.11 65.884 165.918 65.548L164.64 63.322C165.624 62.926 166.188 62.086 166.188 61.066C166.188 59.638 165.156 58.456 163.41 58.456H161.076C160.83 58.456 160.524 58.456 160.29 58.69C160.056 58.924 160.056 59.23 160.056 59.476V65.92C160.056 66.31 160.068 66.448 160.17 66.652C160.296 66.886 160.566 67.048 160.896 67.048C161.226 67.048 161.496 66.886 161.622 66.652C161.724 66.448 161.736 66.31 161.736 65.92V63.598ZM161.736 62.194V59.944H163.32C164.052 59.944 164.52 60.4 164.52 61.072C164.52 61.738 164.052 62.194 163.32 62.194H161.736ZM168.928 67H172.588C172.942 67 173.08 66.988 173.242 66.904C173.452 66.796 173.596 66.55 173.596 66.256C173.596 65.962 173.452 65.716 173.242 65.608C173.08 65.524 172.942 65.512 172.588 65.512H169.588V63.436H172.012C172.366 63.436 172.504 63.424 172.666 63.34C172.876 63.232 173.02 62.986 173.02 62.692C173.02 62.398 172.876 62.152 172.666 62.044C172.504 61.96 172.366 61.948 172.012 61.948H169.588V59.944H172.588C172.942 59.944 173.08 59.932 173.242 59.848C173.452 59.74 173.596 59.494 173.596 59.2C173.596 58.906 173.452 58.66 173.242 58.552C173.08 58.468 172.942 58.456 172.588 58.456H168.928C168.682 58.456 168.376 58.456 168.142 58.69C167.908 58.924 167.908 59.23 167.908 59.476V65.98C167.908 66.226 167.908 66.532 168.142 66.766C168.376 67 168.682 67 168.928 67ZM178.036 63.514C178.438 63.574 178.654 63.664 178.804 63.808C178.978 63.976 179.062 64.228 179.062 64.522C179.062 65.2 178.528 65.596 177.544 65.596C176.908 65.596 176.518 65.464 175.924 65.152C175.606 64.984 175.438 64.924 175.246 64.924C175.072 64.924 174.916 64.972 174.778 65.11C174.634 65.254 174.55 65.476 174.55 65.656C174.55 66.136 174.856 66.376 175.402 66.634C176.056 66.946 176.596 67.072 177.526 67.072C179.32 67.072 180.7 66.13 180.7 64.48C180.7 63.718 180.496 63.1 180.04 62.674C179.68 62.332 179.182 62.122 178.402 62.008L177.4 61.864C177.004 61.804 176.788 61.696 176.608 61.534C176.428 61.366 176.362 61.144 176.362 60.88C176.362 60.334 176.794 59.848 177.676 59.848C178.174 59.848 178.57 59.944 179.026 60.184C179.224 60.286 179.452 60.376 179.65 60.376C179.866 60.376 180.028 60.286 180.148 60.148C180.274 59.992 180.34 59.8 180.34 59.632C180.34 59.278 180.058 58.984 179.656 58.798C179.074 58.528 178.522 58.384 177.724 58.384C175.876 58.384 174.748 59.458 174.748 60.976C174.748 61.69 174.946 62.248 175.36 62.65C175.756 63.034 176.284 63.256 177.016 63.364L178.036 63.514ZM183.943 63.424H186.835V65.92C186.835 66.31 186.847 66.448 186.949 66.652C187.075 66.886 187.345 67.048 187.675 67.048C188.005 67.048 188.275 66.886 188.401 66.652C188.503 66.448 188.515 66.31 188.515 65.92V59.536C188.515 59.146 188.503 59.008 188.401 58.804C188.275 58.57 188.005 58.408 187.675 58.408C187.345 58.408 187.075 58.57 186.949 58.804C186.847 59.008 186.835 59.146 186.835 59.536V61.936H183.943V59.536C183.943 59.146 183.931 59.008 183.829 58.804C183.703 58.57 183.433 58.408 183.103 58.408C182.773 58.408 182.503 58.57 182.377 58.804C182.275 59.008 182.263 59.146 182.263 59.536V65.92C182.263 66.31 182.275 66.448 182.377 66.652C182.503 66.886 182.773 67.048 183.103 67.048C183.433 67.048 183.703 66.886 183.829 66.652C183.931 66.448 183.943 66.31 183.943 65.92V63.424ZM196.153 67.072C197.143 67.072 197.869 66.754 198.445 66.172C199.291 65.326 199.321 64.36 199.321 62.728C199.321 61.096 199.291 60.13 198.445 59.284C197.869 58.702 197.143 58.384 196.153 58.384C195.163 58.384 194.437 58.702 193.861 59.284C193.015 60.13 192.985 61.096 192.985 62.728C192.985 64.36 193.015 65.326 193.861 66.172C194.437 66.754 195.163 67.072 196.153 67.072ZM196.153 59.872C196.609 59.872 196.987 60.052 197.227 60.328C197.545 60.688 197.641 61.096 197.641 62.728C197.641 64.36 197.545 64.762 197.227 65.122C196.987 65.392 196.609 65.584 196.153 65.584C195.697 65.584 195.319 65.392 195.079 65.122C194.761 64.762 194.665 64.36 194.665 62.728C194.665 61.096 194.761 60.688 195.079 60.328C195.319 60.052 195.697 59.872 196.153 59.872ZM207.56 59.536C207.56 59.146 207.548 59.008 207.446 58.804C207.32 58.57 207.05 58.408 206.72 58.408C206.39 58.408 206.12 58.57 205.994 58.804C205.892 59.008 205.88 59.146 205.88 59.536V63.664L202.844 59.176C202.484 58.648 202.25 58.408 201.86 58.408C201.608 58.408 201.398 58.498 201.23 58.666C201.044 58.858 201.002 59.11 201.002 59.452V65.92C201.002 66.31 201.014 66.448 201.116 66.652C201.242 66.886 201.512 67.048 201.842 67.048C202.172 67.048 202.442 66.886 202.568 66.652C202.67 66.448 202.682 66.31 202.682 65.92V61.792L205.724 66.28C206.078 66.808 206.318 67.048 206.702 67.048C206.96 67.048 207.164 66.958 207.332 66.79C207.524 66.598 207.56 66.346 207.56 66.004V59.536ZM210.565 67H214.135C214.489 67 214.627 66.988 214.789 66.904C214.999 66.796 215.143 66.55 215.143 66.256C215.143 65.962 214.999 65.716 214.789 65.608C214.627 65.524 214.489 65.512 214.135 65.512H211.225V59.536C211.225 59.146 211.213 59.008 211.111 58.804C210.985 58.57 210.715 58.408 210.385 58.408C210.055 58.408 209.785 58.57 209.659 58.804C209.557 59.008 209.545 59.146 209.545 59.536V65.98C209.545 66.226 209.545 66.532 209.779 66.766C210.013 67 210.319 67 210.565 67ZM218.115 59.536C218.115 59.146 218.103 59.008 218.001 58.804C217.875 58.57 217.605 58.408 217.275 58.408C216.945 58.408 216.675 58.57 216.549 58.804C216.447 59.008 216.435 59.146 216.435 59.536V65.92C216.435 66.31 216.447 66.448 216.549 66.652C216.675 66.886 216.945 67.048 217.275 67.048C217.605 67.048 217.875 66.886 218.001 66.652C218.103 66.448 218.115 66.31 218.115 65.92V59.536ZM226.65 59.536C226.65 59.146 226.638 59.008 226.536 58.804C226.41 58.57 226.14 58.408 225.81 58.408C225.48 58.408 225.21 58.57 225.084 58.804C224.982 59.008 224.97 59.146 224.97 59.536V63.664L221.934 59.176C221.574 58.648 221.34 58.408 220.95 58.408C220.698 58.408 220.488 58.498 220.32 58.666C220.134 58.858 220.092 59.11 220.092 59.452V65.92C220.092 66.31 220.104 66.448 220.206 66.652C220.332 66.886 220.602 67.048 220.932 67.048C221.262 67.048 221.532 66.886 221.658 66.652C221.76 66.448 221.772 66.31 221.772 65.92V61.792L224.814 66.28C225.168 66.808 225.408 67.048 225.792 67.048C226.05 67.048 226.254 66.958 226.422 66.79C226.614 66.598 226.65 66.346 226.65 66.004V59.536ZM229.655 67H233.315C233.669 67 233.807 66.988 233.969 66.904C234.179 66.796 234.323 66.55 234.323 66.256C234.323 65.962 234.179 65.716 233.969 65.608C233.807 65.524 233.669 65.512 233.315 65.512H230.315V63.436H232.739C233.093 63.436 233.231 63.424 233.393 63.34C233.603 63.232 233.747 62.986 233.747 62.692C233.747 62.398 233.603 62.152 233.393 62.044C233.231 61.96 233.093 61.948 232.739 61.948H230.315V59.944H233.315C233.669 59.944 233.807 59.932 233.969 59.848C234.179 59.74 234.323 59.494 234.323 59.2C234.323 58.906 234.179 58.66 233.969 58.552C233.807 58.468 233.669 58.456 233.315 58.456H229.655C229.409 58.456 229.103 58.456 228.869 58.69C228.635 58.924 228.635 59.23 228.635 59.476V65.98C228.635 66.226 228.635 66.532 228.869 66.766C229.103 67 229.409 67 229.655 67ZM241.552 63.514C241.954 63.574 242.17 63.664 242.32 63.808C242.494 63.976 242.578 64.228 242.578 64.522C242.578 65.2 242.044 65.596 241.06 65.596C240.424 65.596 240.034 65.464 239.44 65.152C239.122 64.984 238.954 64.924 238.762 64.924C238.588 64.924 238.432 64.972 238.294 65.11C238.15 65.254 238.066 65.476 238.066 65.656C238.066 66.136 238.372 66.376 238.918 66.634C239.572 66.946 240.112 67.072 241.042 67.072C242.836 67.072 244.216 66.13 244.216 64.48C244.216 63.718 244.012 63.1 243.556 62.674C243.196 62.332 242.698 62.122 241.918 62.008L240.916 61.864C240.52 61.804 240.304 61.696 240.124 61.534C239.944 61.366 239.878 61.144 239.878 60.88C239.878 60.334 240.31 59.848 241.192 59.848C241.69 59.848 242.086 59.944 242.542 60.184C242.74 60.286 242.968 60.376 243.166 60.376C243.382 60.376 243.544 60.286 243.664 60.148C243.79 59.992 243.856 59.8 243.856 59.632C243.856 59.278 243.574 58.984 243.172 58.798C242.59 58.528 242.038 58.384 241.24 58.384C239.392 58.384 238.264 59.458 238.264 60.976C238.264 61.69 238.462 62.248 238.876 62.65C239.272 63.034 239.8 63.256 240.532 63.364L241.552 63.514ZM250.227 59.944C250.581 59.944 250.719 59.932 250.881 59.848C251.091 59.74 251.235 59.494 251.235 59.2C251.235 58.906 251.091 58.66 250.881 58.552C250.719 58.468 250.581 58.456 250.227 58.456H246.015C245.661 58.456 245.523 58.468 245.361 58.552C245.151 58.66 245.007 58.906 245.007 59.2C245.007 59.494 245.151 59.74 245.361 59.848C245.523 59.932 245.661 59.944 246.015 59.944H247.281V65.92C247.281 66.31 247.293 66.448 247.395 66.652C247.521 66.886 247.791 67.048 248.121 67.048C248.451 67.048 248.721 66.886 248.847 66.652C248.949 66.448 248.961 66.31 248.961 65.92V59.944H250.227ZM255.04 67.072C256.03 67.072 256.756 66.754 257.332 66.172C258.178 65.326 258.208 64.36 258.208 62.728C258.208 61.096 258.178 60.13 257.332 59.284C256.756 58.702 256.03 58.384 255.04 58.384C254.05 58.384 253.324 58.702 252.748 59.284C251.902 60.13 251.872 61.096 251.872 62.728C251.872 64.36 251.902 65.326 252.748 66.172C253.324 66.754 254.05 67.072 255.04 67.072ZM255.04 59.872C255.496 59.872 255.874 60.052 256.114 60.328C256.432 60.688 256.528 61.096 256.528 62.728C256.528 64.36 256.432 64.762 256.114 65.122C255.874 65.392 255.496 65.584 255.04 65.584C254.584 65.584 254.206 65.392 253.966 65.122C253.648 64.762 253.552 64.36 253.552 62.728C253.552 61.096 253.648 60.688 253.966 60.328C254.206 60.052 254.584 59.872 255.04 59.872ZM261.568 63.598H262.738L264.322 66.364C264.538 66.742 264.712 67.048 265.162 67.048C265.312 67.048 265.462 67 265.606 66.916C265.882 66.76 266.032 66.484 266.02 66.22C266.008 66.022 265.942 65.884 265.75 65.548L264.472 63.322C265.456 62.926 266.02 62.086 266.02 61.066C266.02 59.638 264.988 58.456 263.242 58.456H260.908C260.662 58.456 260.356 58.456 260.122 58.69C259.888 58.924 259.888 59.23 259.888 59.476V65.92C259.888 66.31 259.9 66.448 260.002 66.652C260.128 66.886 260.398 67.048 260.728 67.048C261.058 67.048 261.328 66.886 261.454 66.652C261.556 66.448 261.568 66.31 261.568 65.92V63.598ZM261.568 62.194V59.944H263.152C263.884 59.944 264.352 60.4 264.352 61.072C264.352 61.738 263.884 62.194 263.152 62.194H261.568ZM268.76 67H272.42C272.774 67 272.912 66.988 273.074 66.904C273.284 66.796 273.428 66.55 273.428 66.256C273.428 65.962 273.284 65.716 273.074 65.608C272.912 65.524 272.774 65.512 272.42 65.512H269.42V63.436H271.844C272.198 63.436 272.336 63.424 272.498 63.34C272.708 63.232 272.852 62.986 272.852 62.692C272.852 62.398 272.708 62.152 272.498 62.044C272.336 61.96 272.198 61.948 271.844 61.948H269.42V59.944H272.42C272.774 59.944 272.912 59.932 273.074 59.848C273.284 59.74 273.428 59.494 273.428 59.2C273.428 58.906 273.284 58.66 273.074 58.552C272.912 58.468 272.774 58.456 272.42 58.456H268.76C268.514 58.456 268.208 58.456 267.974 58.69C267.74 58.924 267.74 59.23 267.74 59.476V65.98C267.74 66.226 267.74 66.532 267.974 66.766C268.208 67 268.514 67 268.76 67Z" fill="#EA1C24"/>
<path d="M36.3951 9C36.3951 9 41.1656 20.6707 20.72 28.5099C9.61037 32.7684 1.07749 43.6831 11.2657 60.5436C12.1095 53.0072 15.7275 36.3905 31.2845 32.5987C31.2845 32.5987 16.8049 38.013 15.5259 62.5213C22.9661 63.5659 40.4155 64.2678 45.5962 49.1251C52.4373 29.1183 36.3951 9 36.3951 9Z" fill="#3A7F0D"/>
<path d="M15.5326 62.4193C31.3276 56.1156 42.8203 41.3485 44.4065 23.72C41.1774 15.01 36.3951 9 36.3951 9C36.3951 9 41.1656 20.6707 20.72 28.5099C9.61037 32.7684 1.07749 43.6831 11.2657 60.5436C12.1095 53.0072 15.7275 36.3905 31.2845 32.5987C31.2836 32.5988 16.8472 37.9996 15.5326 62.4193Z" fill="#81FF2E"/>
<path d="M9.68961 28.899C10.5051 28.899 11.1662 28.2379 11.1662 27.4224C11.1662 26.6069 10.5051 25.9458 9.68961 25.9458C8.87411 25.9458 8.21301 26.6069 8.21301 27.4224C8.21301 28.2379 8.87411 28.899 9.68961 28.899Z" fill="#3A7F0D"/>
<path d="M14.3302 27.0004C14.9127 27.0004 15.3848 26.5283 15.3848 25.9458C15.3848 25.3633 14.9127 24.8911 14.3302 24.8911C13.7477 24.8911 13.2755 25.3633 13.2755 25.9458C13.2755 26.5283 13.7477 27.0004 14.3302 27.0004Z" fill="#81FF2E"/>
<path d="M13.3811 18.563C14.8372 18.563 16.0177 17.3825 16.0177 15.9263C16.0177 14.4701 14.8372 13.2897 13.3811 13.2897C11.9249 13.2897 10.7444 14.4701 10.7444 15.9263C10.7444 17.3825 11.9249 18.563 13.3811 18.563Z" fill="#81FF2E"/>
<path d="M21.5021 22.7817C21.9681 22.7817 22.3458 22.404 22.3458 21.938C22.3458 21.472 21.9681 21.0942 21.5021 21.0942C21.0361 21.0942 20.6583 21.472 20.6583 21.938C20.6583 22.404 21.0361 22.7817 21.5021 22.7817Z" fill="#81FF2E"/>
<path d="M28.5693 19.6176C29.909 19.6176 30.9951 18.5316 30.9951 17.1919C30.9951 15.8522 29.909 14.7661 28.5693 14.7661C27.2296 14.7661 26.1436 15.8522 26.1436 17.1919C26.1436 18.5316 27.2296 19.6176 28.5693 19.6176Z" fill="#81FF2E"/>
</svg>
