<svg width="104" height="104" viewBox="0 0 104 104" fill="none" xmlns="http://www.w3.org/2000/svg">
<g clip-path="url(#clip0)">
<path d="M79.6914 45.9207C79.6914 42.6282 77.013 39.95 73.7205 39.95H62.7473C65.4133 36.9533 67.1557 33.541 67.4923 30.4797C67.6979 28.6099 67.1202 26.754 65.9069 25.3876C64.7981 24.1385 63.2817 23.4424 61.6372 23.4272C61.6181 23.427 61.599 23.427 61.5802 23.427C59.9895 23.427 58.4965 24.0396 57.3698 25.156C56.2428 26.2726 55.6192 27.7601 55.6119 29.3475C55.554 29.695 54.9426 30.8933 53.4466 32.316C52.2218 33.4811 50.106 35.0827 46.9822 36.0969C45.7573 36.4946 44.6379 37.2269 43.6552 38.2734C43.1394 38.8223 42.3672 39.5803 41.4111 40.3412C40.9418 40.0926 40.4082 39.9504 39.8413 39.9504H29.4196C27.5638 39.9504 26.0542 41.46 26.0542 43.3158V71.1069C26.0542 72.9627 27.5638 74.4723 29.4196 74.4723H39.8413C41.1064 74.4723 42.2095 73.7699 42.7844 72.7354H69.3781C72.1916 72.7354 74.4804 70.4466 74.4804 67.6331C74.4804 66.6872 74.2218 65.8007 73.7713 65.0402C75.2373 64.1428 76.2173 62.5263 76.2173 60.6852C76.2173 59.7393 75.9588 58.8528 75.5082 58.0923C76.9742 57.1949 77.9543 55.5784 77.9543 53.7373C77.9543 52.6725 77.6264 51.6829 77.0664 50.8639C78.6493 49.7888 79.6914 47.9741 79.6914 45.9207ZM73.7205 48.6346H72.852C71.9527 48.6346 71.2235 49.3636 71.2235 50.2631C71.2235 51.1623 71.9525 51.8915 72.852 51.8915C73.8696 51.8915 74.6976 52.7195 74.6976 53.7371C74.6976 54.7548 73.8696 55.5827 72.852 55.5827H71.115C70.2158 55.5827 69.4866 56.3117 69.4866 57.2112C69.4866 58.1104 70.2156 58.8396 71.115 58.8396C72.1327 58.8396 72.9606 59.6676 72.9606 60.6852C72.9606 61.7029 72.1327 62.5308 71.115 62.5308H69.3781C68.4789 62.5308 67.7497 63.2598 67.7497 64.1593C67.7497 65.0585 68.4787 65.7877 69.3781 65.7877C70.3958 65.7877 71.2237 66.6156 71.2237 67.6333C71.2237 68.651 70.3958 69.4789 69.3781 69.4789H43.2067V53.7377C43.2067 52.8385 42.4777 52.1093 41.5782 52.1093C40.6788 52.1093 39.9498 52.8383 39.9498 53.7377V71.1072C39.9498 71.1671 39.9012 71.2156 39.8413 71.2156H29.4196C29.3597 71.2156 29.3111 71.1671 29.3111 71.1072V43.3152C29.3111 43.2553 29.3597 43.2067 29.4196 43.2067H39.8413C39.9012 43.2067 39.9498 43.2553 39.9498 43.3152V46.7892C39.9498 47.6885 40.6788 48.4177 41.5782 48.4177C42.4777 48.4177 43.2067 47.6887 43.2067 46.7892V43.3152C43.2067 43.2362 43.2002 43.1588 43.1947 43.0812C44.4157 42.136 45.3921 41.1805 46.0291 40.5025C46.6318 39.8604 47.2907 39.4205 47.9876 39.1944C51.8206 37.95 54.4001 35.9464 55.8888 34.4847C57.7547 32.6527 58.8684 30.743 58.8684 29.3757C58.8684 28.6534 59.1502 27.9764 59.6618 27.4694C60.1798 26.9561 60.8658 26.6849 61.607 26.6839C62.5198 26.6924 63.1243 27.1594 63.471 27.5498C64.0654 28.2191 64.3579 29.1815 64.2545 30.1238C63.8988 33.3594 61.3112 37.3589 57.6623 40.3128C57.1262 40.7469 56.9217 41.4716 57.1518 42.1218C57.382 42.772 57.997 43.2067 58.6868 43.2067H73.7201C75.2167 43.2067 76.4341 44.424 76.4341 45.9207C76.4341 47.4173 75.2169 48.6346 73.7205 48.6346Z" fill="#747474"/>
<path d="M34.6306 64.2496C33.7314 64.2496 32.9937 64.9874 32.9937 65.8866C32.9937 66.7859 33.7314 67.5236 34.6306 67.5236C35.5299 67.5236 36.2676 66.7859 36.2676 65.8866C36.2678 64.9876 35.5301 64.2496 34.6306 64.2496Z" fill="#747474"/>
<path d="M101.097 52.0003L103.894 44.5978C104.098 44.0593 104.002 43.4534 103.642 43.0039L98.6941 36.8281L99.067 28.9235C99.0942 28.3486 98.8155 27.8016 98.3345 27.4857L91.7204 23.1411L89.6327 15.5081C89.4807 14.9527 89.0469 14.5189 88.4917 14.3671L80.8587 12.2794L76.514 5.66545C76.198 5.18424 75.6512 4.90677 75.0763 4.93298L67.1717 5.30592L60.9959 0.357993C60.5466 -0.00194413 59.9407 -0.0980223 59.402 0.105509L51.9995 2.90295L44.5974 0.105712C44.0585 -0.0980223 43.4528 -0.00194416 43.0035 0.358196L36.8277 5.30612L28.9231 4.93318C28.3454 4.90596 27.8012 5.18465 27.4854 5.66565L23.1409 12.2798L15.5079 14.3675C14.9525 14.5195 14.5187 14.9533 14.3669 15.5085L12.2792 23.1415L5.66506 27.4859C5.18385 27.802 4.90537 28.3488 4.93259 28.9237L5.30552 36.8283L0.357602 43.0041C-0.0023354 43.4534 -0.0984135 44.0593 0.105118 44.598L2.90235 52.0003L0.104915 59.4026C-0.0988198 59.9411 -0.00274164 60.547 0.357399 60.9965L5.30532 67.1723L4.93238 75.0769C4.90516 75.6518 5.18385 76.1988 5.66485 76.5146L12.279 80.8593L14.3667 88.4923C14.5187 89.0477 14.9525 89.4815 15.5077 89.6333L23.1407 91.721L27.4851 98.3351C27.8012 98.8163 28.349 99.093 28.9229 99.0676L36.8275 98.6947L43.0033 103.643C43.4526 104.003 44.0587 104.099 44.5972 103.895L51.9997 101.098L59.4022 103.895C59.5891 103.966 59.7839 104 59.9776 104C60.3424 104 60.7026 103.878 60.9959 103.643L67.1717 98.6947L75.0763 99.0676C75.653 99.0932 76.198 98.8161 76.514 98.3351L80.8587 91.721L88.4917 89.6333C89.0471 89.4813 89.4809 89.0475 89.6327 88.4923L91.7204 80.8593L98.3345 76.5146C98.8157 76.1986 99.0942 75.6518 99.067 75.0769L98.6941 67.1723L103.642 60.9965C104.002 60.5472 104.098 59.9413 103.894 59.4026L101.097 52.0003ZM97.833 52.576L100.52 59.6851L95.7676 65.6162C95.5196 65.9255 95.3931 66.3149 95.4118 66.711L95.7701 74.3024L89.4182 78.4748C89.0869 78.6923 88.846 79.0236 88.7413 79.4063L86.7363 86.7369L79.4057 88.742C79.0232 88.8466 78.6921 89.0873 78.4742 89.4188L74.3018 95.7707L66.7104 95.4124C66.3141 95.3941 65.9249 95.5202 65.6156 95.7682L59.6845 100.52L52.5754 97.8336C52.3899 97.7635 52.1947 97.7286 51.9997 97.7286C51.8047 97.7286 51.6095 97.7637 51.424 97.8336L44.3149 100.52L38.3838 95.7682C38.0745 95.5202 37.6845 95.3941 37.289 95.4124L29.6976 95.7707L25.5252 89.4188C25.3076 89.0875 24.9764 88.8466 24.5937 88.742L17.2631 86.7369L15.258 79.4063C15.1534 79.0238 14.9127 78.6927 14.5812 78.4748L8.22931 74.3024L8.58762 66.711C8.60631 66.3147 8.47976 65.9255 8.23174 65.6162L3.47984 59.6851L6.16657 52.576C6.30673 52.205 6.30673 51.7955 6.16657 51.4246L3.47984 44.3155L8.23174 38.3844C8.47976 38.0751 8.60631 37.6857 8.58762 37.2896L8.22931 29.6982L14.5812 25.5258C14.9125 25.3082 15.1534 24.9769 15.258 24.5943L17.2631 17.2637L24.5937 15.2586C24.9761 15.154 25.3072 14.9133 25.5252 14.5818L29.6976 8.2299L37.289 8.58821C37.6847 8.6067 38.0745 8.48035 38.3838 8.23234L44.3149 3.48043L51.424 6.16717C51.7952 6.30732 52.2044 6.30732 52.5754 6.16717L59.6845 3.48043L65.6156 8.23234C65.9249 8.48056 66.3145 8.6069 66.7104 8.58821L74.3018 8.2299L78.4742 14.5818C78.6917 14.9131 79.023 15.154 79.4057 15.2586L86.7363 17.2637L88.7413 24.5943C88.846 24.9767 89.0867 25.3078 89.4182 25.5258L95.7701 29.6982L95.4118 37.2896C95.3931 37.6859 95.5196 38.0751 95.7676 38.3844L100.52 44.3155L97.8328 51.4246C97.6929 51.7957 97.6929 52.205 97.833 52.576Z" fill="#747474"/>
<path d="M82.5975 23.8822C82.1923 23.441 81.772 23.0022 81.3477 22.5781C80.9234 22.154 80.4848 21.7335 80.0436 21.3283C79.3812 20.7201 78.3512 20.764 77.7428 21.4266C77.1347 22.089 77.1785 23.1192 77.8411 23.7274C78.248 24.1011 78.653 24.4891 79.0447 24.8807C79.4361 25.2722 79.8242 25.6774 80.1982 26.0845C80.5193 26.4342 80.9581 26.6116 81.3983 26.6116C81.7917 26.6116 82.1864 26.4698 82.499 26.1828C83.1616 25.5748 83.2057 24.5446 82.5975 23.8822Z" fill="#747474"/>
<path d="M74.2608 16.8848C66.408 11.8818 56.9534 9.65842 47.6395 10.6227C38.1891 11.6017 29.278 15.8474 22.5472 22.578C15.1399 29.9853 10.8271 39.8255 10.4034 50.2859C9.98233 60.6846 13.4265 70.7808 20.1018 78.714C20.4238 79.0967 20.8845 79.2939 21.3488 79.2939C21.7189 79.2939 22.091 79.1684 22.3963 78.9117C23.0843 78.3326 23.1729 77.3053 22.594 76.6174C16.4431 69.3071 13.2695 60.0028 13.6575 50.4179C14.0479 40.7772 18.0226 31.708 24.8499 24.881C31.0533 18.6774 39.266 14.7642 47.9748 13.8621C56.5619 12.9724 65.2752 15.0217 72.5107 19.6315C73.2694 20.1147 74.2757 19.8917 74.7589 19.1332C75.2423 18.3745 75.0191 17.368 74.2608 16.8848Z" fill="#747474"/>
<path d="M87.0413 29.665C86.5581 28.9063 85.551 28.6833 84.7929 29.1665C84.0342 29.6498 83.8114 30.6564 84.2947 31.4147C88.9044 38.6504 90.9533 47.3641 90.064 55.9506C89.1619 64.6594 85.2487 72.8719 79.0453 79.0758C72.2181 85.9028 63.1489 89.8777 53.5084 90.2681C43.9252 90.6577 34.619 87.4827 27.309 81.3321C26.621 80.753 25.5938 80.8415 25.0147 81.5297C24.4356 82.2177 24.5241 83.2449 25.2123 83.824C32.7119 90.1341 42.143 93.5572 51.9366 93.5569C52.5032 93.5569 53.0719 93.5454 53.6407 93.5224C64.101 93.0989 73.941 88.7861 81.3485 81.3788C88.0793 74.648 92.3252 65.7367 93.3039 56.2864C94.2683 46.9718 92.0443 37.5176 87.0413 29.665Z" fill="#747474"/>
</g>
<defs>
<clipPath id="clip0">
<rect width="104" height="104" fill="white"/>
</clipPath>
</defs>
</svg>
